# xmcd
#
# Track frame offsets:
#	150
#	30960
#	57042
#	77980
#	102550
#	118397
#	139150
#	161312
#
# Disc length: 2435 seconds
#
# Revision: 4
# Processed by: cddbd v1.5PL3 Copyright (c) Steve Scherf et al.
# Submitted via: CDex 1.50Beta5
#
DISCID=64098108
DTITLE=Skoop On Somebody - Sounds Of Snow
DYEAR=2002
DGENRE=R&B
TTITLE0=星なき聖夜は　〜There's No Christmas without You〜
TTITLE1=Sounds Of Snow
TTITLE2=夏よりも暑い冬　〜Winter Boogie〜
TTITLE3=Joy and Happiness
TTITLE4=This Chistmas
TTITLE5=春が来るまでに
TTITLE6=After The Party
TTITLE7=The Christmas Song （Bonus Track)
EXTD=
EXTT0=
EXTT1=
EXTT2=
EXTT3=
EXTT4=
EXTT5=
EXTT6=
EXTT7=
PLAYORDER=
